<mxfile host="app.diagrams.net" agent="Mozilla/5.0 (Windows NT 10.0; Win64; x64) AppleWebKit/537.36 (KHTML, like Gecko) Chrome/116.0.0.0 Safari/537.36" version="24.7.14">
  <diagram name="第 1 页" id="kJ6ruK-Ss0x04oIJjGyf">
    <mxGraphModel dx="1434" dy="758" grid="1" gridSize="10" guides="1" tooltips="1" connect="1" arrows="1" fold="1" page="1" pageScale="1" pageWidth="827" pageHeight="1169" math="0" shadow="0">
      <root>
        <mxCell id="0" />
        <mxCell id="1" parent="0" />
        <mxCell id="g8HIUZK8w_mc1hn0HHyK-1" value="后置处理后的混排结果 303" style="whiteSpace=wrap;html=1;" vertex="1" parent="1">
          <mxGeometry x="1157" y="103" width="280" height="60" as="geometry" />
        </mxCell>
        <mxCell id="g8HIUZK8w_mc1hn0HHyK-4" value="&lt;b&gt;有两个303：&lt;/b&gt;&lt;br&gt;bingo303：混排最终结果&lt;br&gt;searchx303：对bingo303后置处理后的结果&lt;br&gt;诊断后台二者同时存在优先展示bingo303&lt;div&gt;&lt;br&gt;&lt;/div&gt;" style="text;html=1;align=left;verticalAlign=middle;resizable=0;points=[];autosize=1;strokeColor=none;fillColor=none;" vertex="1" parent="1">
          <mxGeometry x="140" y="60" width="250" height="90" as="geometry" />
        </mxCell>
        <mxCell id="g8HIUZK8w_mc1hn0HHyK-5" value="searchx 303" style="whiteSpace=wrap;html=1;" vertex="1" parent="1">
          <mxGeometry x="520" y="75" width="120" height="60" as="geometry" />
        </mxCell>
      </root>
    </mxGraphModel>
  </diagram>
</mxfile>
